<svg xmlns="http://www.w3.org/2000/svg" viewBox="0 0 64 64" width="64" height="64">
  <defs>
    <linearGradient id="sky" x1="0" y1="0" x2="0" y2="1">
      <stop offset="0" stop-color="#0b1026"/>
      <stop offset="1" stop-color="#1d2a5c"/>
    </linearGradient>
    <linearGradient id="flame" x1="0" y1="0" x2="0" y2="1">
      <stop offset="0" stop-color="#fff4c2"/>
      <stop offset="0.45" stop-color="#ffb347"/>
      <stop offset="1" stop-color="#ff5e3a" stop-opacity="0"/>
    </linearGradient>
  </defs>
  <rect x="2" y="2" width="60" height="60" rx="14" fill="url(#sky)"/>
  <circle cx="13" cy="14" r="1" fill="#ffffff" opacity="0.8"/>
  <circle cx="50" cy="11" r="1.2" fill="#ffffff" opacity="0.9"/>
  <circle cx="47" cy="27" r="0.8" fill="#ffffff" opacity="0.6"/>
  <circle cx="16" cy="33" r="0.8" fill="#ffffff" opacity="0.6"/>
  <path d="M28.5 45 L35.5 45 L34 58 Q32 61 30 58 Z" fill="url(#flame)"/>
  <path d="M32 6 C36 10 37.5 15 37.5 21 L37.5 45 L26.5 45 L26.5 21 C26.5 15 28 10 32 6 Z" fill="#eef1f6"/>
  <path d="M32 6 C34.6 8.6 36 11.6 36.9 15 L27.1 15 C28 11.6 29.4 8.6 32 6 Z" fill="#c9cfdb"/>
  <rect x="26.5" y="27" width="11" height="2.2" fill="#c9cfdb"/>
  <path d="M26.5 37 L21 45 L21 47 L26.5 45 Z" fill="#9aa3b5"/>
  <path d="M37.5 37 L43 45 L43 47 L37.5 45 Z" fill="#9aa3b5"/>
  <rect x="26.5" y="43.5" width="11" height="2" fill="#2b3447"/>
</svg>
